<?xml version="1.0" encoding="UTF-8" standalone="no"?>
<!DOCTYPE svg PUBLIC "-//W3C//DTD SVG 1.1//EN"
 "http://www.w3.org/Graphics/SVG/1.1/DTD/svg11.dtd">
<!-- Generated by graphviz version 12.2.1 (20241206.2353)
 -->
<!-- Title: Automaton Pages: 1 -->
<svg width="869pt" height="558pt"
 viewBox="0.00 0.00 868.74 557.59" xmlns="http://www.w3.org/2000/svg" xmlns:xlink="http://www.w3.org/1999/xlink">
<g id="graph0" class="graph" transform="scale(1 1) rotate(0) translate(4 553.59)">
<title>Automaton</title>
<polygon fill="white" stroke="none" points="-4,4 -4,-553.59 864.74,-553.59 864.74,4 -4,4"/>
<!-- q0 -->
<g id="node1" class="node">
<title>q0</title>
<ellipse fill="none" stroke="black" cx="18" cy="-188.97" rx="18" ry="18"/>
<text text-anchor="middle" x="18" y="-183.92" font-family="Times,serif" font-size="14.00">ε</text>
</g>
<!-- q1 -->
<g id="node2" class="node">
<title>q1</title>
<ellipse fill="none" stroke="black" cx="265.25" cy="-235.97" rx="18" ry="18"/>
<text text-anchor="middle" x="265.25" y="-230.92" font-family="Times,serif" font-size="14.00">a</text>
</g>
<!-- q0&#45;&gt;q1 -->
<g id="edge1" class="edge">
<title>q0&#45;&gt;q1</title>
<path fill="none" stroke="black" d="M35.86,-192.2C77.34,-200.15 184.7,-220.73 236.06,-230.57"/>
<polygon fill="black" stroke="black" points="235.31,-233.99 245.79,-232.43 236.63,-227.11 235.31,-233.99"/>
<text text-anchor="middle" x="136.12" y="-215.13" font-family="Times,serif" font-size="14.00">a</text>
</g>
<!-- q12 -->
<g id="node13" class="node">
<title>q12</title>
<ellipse fill="none" stroke="black" cx="96.75" cy="-141.97" rx="18" ry="18"/>
<text text-anchor="middle" x="96.75" y="-136.92" font-family="Times,serif" font-size="14.00">b</text>
</g>
<!-- q0&#45;&gt;q12 -->
<g id="edge2" class="edge">
<title>q0&#45;&gt;q12</title>
<path fill="none" stroke="black" d="M33.8,-179.91C44.35,-173.45 58.78,-164.61 71.06,-157.09"/>
<polygon fill="black" stroke="black" points="72.74,-160.16 79.44,-151.96 69.09,-154.19 72.74,-160.16"/>
<text text-anchor="middle" x="57.38" y="-170.08" font-family="Times,serif" font-size="14.00">b</text>
</g>
<!-- q2 -->
<g id="node3" class="node">
<title>q2</title>
<ellipse fill="none" stroke="black" cx="352.36" cy="-370.97" rx="19.11" ry="19.11"/>
<text text-anchor="middle" x="352.36" y="-365.92" font-family="Times,serif" font-size="14.00">aa</text>
</g>
<!-- q1&#45;&gt;q2 -->
<g id="edge3" class="edge">
<title>q1&#45;&gt;q2</title>
<path fill="none" stroke="black" d="M275.68,-250.93C290.1,-273.8 317.79,-317.72 335.37,-345.62"/>
<polygon fill="black" stroke="black" points="332.25,-347.23 340.55,-353.83 338.18,-343.5 332.25,-347.23"/>
<text text-anchor="middle" x="311.36" y="-314.75" font-family="Times,serif" font-size="14.00">a</text>
</g>
<!-- q8 -->
<g id="node9" class="node">
<title>q8</title>
<ellipse fill="none" stroke="black" cx="438.95" cy="-235.97" rx="19.62" ry="19.62"/>
<text text-anchor="middle" x="438.95" y="-230.92" font-family="Times,serif" font-size="14.00">ab</text>
</g>
<!-- q1&#45;&gt;q8 -->
<g id="edge4" class="edge">
<title>q1&#45;&gt;q8</title>
<path fill="none" stroke="black" d="M283.66,-235.97C312.77,-235.97 371.66,-235.97 407.67,-235.97"/>
<polygon fill="black" stroke="black" points="407.42,-239.47 417.42,-235.97 407.42,-232.47 407.42,-239.47"/>
<text text-anchor="middle" x="352.36" y="-239.17" font-family="Times,serif" font-size="14.00">b</text>
</g>
<!-- q3 -->
<g id="node4" class="node">
<title>q3</title>
<ellipse fill="none" stroke="black" cx="837.54" cy="-287.97" rx="23.2" ry="23.2"/>
<text text-anchor="middle" x="837.54" y="-282.92" font-family="Times,serif" font-size="14.00">aaa</text>
</g>
<!-- q2&#45;&gt;q3 -->
<g id="edge5" class="edge">
<title>q2&#45;&gt;q3</title>
<path fill="none" stroke="black" d="M371.84,-370.97C388.98,-370.97 415.19,-370.97 437.95,-370.97 437.95,-370.97 437.95,-370.97 744.26,-370.97 777.21,-370.97 803.73,-341.35 819.73,-317.5"/>
<polygon fill="black" stroke="black" points="822.51,-319.66 824.93,-309.34 816.6,-315.9 822.51,-319.66"/>
<text text-anchor="middle" x="584.97" y="-374.17" font-family="Times,serif" font-size="14.00">a</text>
</g>
<!-- q4 -->
<g id="node5" class="node">
<title>q4</title>
<ellipse fill="none" stroke="black" cx="438.95" cy="-422.97" rx="23.71" ry="23.71"/>
<text text-anchor="middle" x="438.95" y="-417.92" font-family="Times,serif" font-size="14.00">aab</text>
</g>
<!-- q2&#45;&gt;q4 -->
<g id="edge6" class="edge">
<title>q2&#45;&gt;q4</title>
<path fill="none" stroke="black" d="M369.27,-380.75C380.33,-387.55 395.4,-396.81 408.6,-404.93"/>
<polygon fill="black" stroke="black" points="406.6,-407.81 416.95,-410.06 410.26,-401.84 406.6,-407.81"/>
<text text-anchor="middle" x="393.35" y="-400.17" font-family="Times,serif" font-size="14.00">b</text>
</g>
<!-- q3&#45;&gt;q3 -->
<g id="edge7" class="edge">
<title>q3&#45;&gt;q3</title>
<path fill="none" stroke="black" d="M833.39,-311.27C833.11,-320.96 834.49,-329.17 837.54,-329.17 839.25,-329.17 840.44,-326.57 841.1,-322.57"/>
<polygon fill="black" stroke="black" points="844.58,-322.95 841.6,-312.78 837.59,-322.59 844.58,-322.95"/>
<text text-anchor="middle" x="837.54" y="-332.37" font-family="Times,serif" font-size="14.00">a</text>
</g>
<!-- q3&#45;&gt;q3 -->
<g id="edge8" class="edge">
<title>q3&#45;&gt;q3</title>
<path fill="none" stroke="black" d="M830.35,-310.45C827.48,-328.52 829.87,-347.17 837.54,-347.17 843.58,-347.17 846.35,-335.56 845.83,-321.78"/>
<polygon fill="black" stroke="black" points="849.33,-321.56 844.87,-311.95 842.36,-322.25 849.33,-321.56"/>
<text text-anchor="middle" x="837.54" y="-350.37" font-family="Times,serif" font-size="14.00">b</text>
</g>
<!-- q5 -->
<g id="node6" class="node">
<title>q5</title>
<ellipse fill="none" stroke="black" cx="743.26" cy="-426.97" rx="27.81" ry="27.81"/>
<text text-anchor="middle" x="743.26" y="-421.92" font-family="Times,serif" font-size="14.00">aaba</text>
</g>
<!-- q4&#45;&gt;q5 -->
<g id="edge9" class="edge">
<title>q4&#45;&gt;q5</title>
<path fill="none" stroke="black" d="M462.67,-423.27C514.12,-423.95 640,-425.62 703.82,-426.46"/>
<polygon fill="black" stroke="black" points="703.42,-429.96 713.47,-426.59 703.52,-422.96 703.42,-429.96"/>
<text text-anchor="middle" x="584.97" y="-428.12" font-family="Times,serif" font-size="14.00">a</text>
</g>
<!-- q6 -->
<g id="node7" class="node">
<title>q6</title>
<ellipse fill="none" stroke="black" cx="534.76" cy="-477.97" rx="28.32" ry="28.32"/>
<text text-anchor="middle" x="534.76" y="-472.92" font-family="Times,serif" font-size="14.00">aabb</text>
</g>
<!-- q4&#45;&gt;q6 -->
<g id="edge10" class="edge">
<title>q4&#45;&gt;q6</title>
<path fill="none" stroke="black" d="M459.85,-434.64C471.5,-441.47 486.54,-450.28 500,-458.18"/>
<polygon fill="black" stroke="black" points="498.2,-461.18 508.6,-463.22 501.74,-455.14 498.2,-461.18"/>
<text text-anchor="middle" x="484.55" y="-453.67" font-family="Times,serif" font-size="14.00">b</text>
</g>
<!-- q5&#45;&gt;q3 -->
<g id="edge11" class="edge">
<title>q5&#45;&gt;q3</title>
<path fill="none" stroke="black" d="M766.61,-411.36C776.7,-403.45 788.16,-393.16 796.33,-381.97 809.75,-363.61 819.81,-340.08 826.51,-321.16"/>
<polygon fill="black" stroke="black" points="829.79,-322.37 829.67,-311.77 823.16,-320.13 829.79,-322.37"/>
<text text-anchor="middle" x="792.96" y="-392.43" font-family="Times,serif" font-size="14.00">a</text>
</g>
<!-- q5&#45;&gt;q3 -->
<g id="edge12" class="edge">
<title>q5&#45;&gt;q3</title>
<path fill="none" stroke="black" d="M771.2,-423.21C780.18,-420.75 789.6,-416.69 796.33,-409.97 819.58,-386.79 829.38,-349.92 833.52,-322.78"/>
<polygon fill="black" stroke="black" points="836.98,-323.32 834.81,-312.94 830.04,-322.4 836.98,-323.32"/>
<text text-anchor="middle" x="792.96" y="-417.82" font-family="Times,serif" font-size="14.00">b</text>
</g>
<!-- q6&#45;&gt;q3 -->
<g id="edge13" class="edge">
<title>q6&#45;&gt;q3</title>
<path fill="none" stroke="black" d="M557.54,-495.12C570.82,-504.47 588.6,-515.09 606.34,-519.97 677.67,-539.59 710.36,-541.5 771.58,-499.97 788.26,-488.66 788.44,-480.52 796.33,-461.97 815.96,-415.83 826.83,-358.55 832.18,-322.61"/>
<polygon fill="black" stroke="black" points="835.63,-323.18 833.57,-312.79 828.7,-322.2 835.63,-323.18"/>
<text text-anchor="middle" x="693.57" y="-536.29" font-family="Times,serif" font-size="14.00">a</text>
</g>
<!-- q7 -->
<g id="node8" class="node">
<title>q7</title>
<ellipse fill="none" stroke="black" cx="639.27" cy="-477.97" rx="32.93" ry="32.93"/>
<text text-anchor="middle" x="639.27" y="-472.92" font-family="Times,serif" font-size="14.00">aabbb</text>
</g>
<!-- q6&#45;&gt;q7 -->
<g id="edge14" class="edge">
<title>q6&#45;&gt;q7</title>
<path fill="none" stroke="black" d="M563.5,-477.97C573.17,-477.97 584.26,-477.97 594.89,-477.97"/>
<polygon fill="black" stroke="black" points="594.63,-481.47 604.63,-477.97 594.63,-474.47 594.63,-481.47"/>
<text text-anchor="middle" x="584.97" y="-481.17" font-family="Times,serif" font-size="14.00">b</text>
</g>
<!-- q7&#45;&gt;q3 -->
<g id="edge15" class="edge">
<title>q7&#45;&gt;q3</title>
<path fill="none" stroke="black" d="M672.47,-481.07C700.33,-482.29 740.87,-480.44 771.58,-463.97 821.3,-437.31 833.48,-366.15 836.15,-322.92"/>
<polygon fill="black" stroke="black" points="839.64,-323.19 836.61,-313.04 832.65,-322.87 839.64,-323.19"/>
<text text-anchor="middle" x="743.26" y="-482.91" font-family="Times,serif" font-size="14.00">a</text>
</g>
<!-- q7&#45;&gt;q5 -->
<g id="edge16" class="edge">
<title>q7&#45;&gt;q5</title>
<path fill="none" stroke="black" d="M669.22,-463.49C681.28,-457.47 695.37,-450.42 707.94,-444.13"/>
<polygon fill="black" stroke="black" points="709.33,-447.35 716.71,-439.75 706.2,-441.09 709.33,-447.35"/>
<text text-anchor="middle" x="693.57" y="-455.67" font-family="Times,serif" font-size="14.00">b</text>
</g>
<!-- q9 -->
<g id="node10" class="node">
<title>q9</title>
<ellipse fill="none" stroke="black" cx="743.26" cy="-227.97" rx="23.71" ry="23.71"/>
<text text-anchor="middle" x="743.26" y="-222.92" font-family="Times,serif" font-size="14.00">aba</text>
</g>
<!-- q8&#45;&gt;q9 -->
<g id="edge17" class="edge">
<title>q8&#45;&gt;q9</title>
<path fill="none" stroke="black" d="M458.86,-235.47C508.65,-234.15 643.92,-230.57 707.88,-228.88"/>
<polygon fill="black" stroke="black" points="707.9,-232.38 717.8,-228.62 707.71,-225.38 707.9,-232.38"/>
<text text-anchor="middle" x="584.97" y="-235.36" font-family="Times,serif" font-size="14.00">a</text>
</g>
<!-- q10 -->
<g id="node11" class="node">
<title>q10</title>
<ellipse fill="none" stroke="black" cx="534.76" cy="-275.97" rx="24.23" ry="24.23"/>
<text text-anchor="middle" x="534.76" y="-270.92" font-family="Times,serif" font-size="14.00">abb</text>
</g>
<!-- q8&#45;&gt;q10 -->
<g id="edge18" class="edge">
<title>q8&#45;&gt;q10</title>
<path fill="none" stroke="black" d="M457.6,-243.49C469.98,-248.78 486.9,-255.99 501.64,-262.28"/>
<polygon fill="black" stroke="black" points="499.94,-265.35 510.51,-266.06 502.68,-258.91 499.94,-265.35"/>
<text text-anchor="middle" x="484.55" y="-259.17" font-family="Times,serif" font-size="14.00">b</text>
</g>
<!-- q9&#45;&gt;q3 -->
<g id="edge19" class="edge">
<title>q9&#45;&gt;q3</title>
<path fill="none" stroke="black" d="M764.89,-217.43C774.93,-213.84 786.84,-211.96 796.33,-217.47 810.41,-225.65 819.97,-240.81 826.22,-254.98"/>
<polygon fill="black" stroke="black" points="822.89,-256.07 829.82,-264.08 829.4,-253.5 822.89,-256.07"/>
<text text-anchor="middle" x="792.96" y="-220.67" font-family="Times,serif" font-size="14.00">a</text>
</g>
<!-- q9&#45;&gt;q3 -->
<g id="edge20" class="edge">
<title>q9&#45;&gt;q3</title>
<path fill="none" stroke="black" d="M764.67,-238.71C774.43,-244.05 786.18,-250.79 796.33,-257.47 800.85,-260.45 805.53,-263.76 810.03,-267.08"/>
<polygon fill="black" stroke="black" points="807.6,-269.63 817.69,-272.87 811.82,-264.05 807.6,-269.63"/>
<text text-anchor="middle" x="792.96" y="-260.67" font-family="Times,serif" font-size="14.00">b</text>
</g>
<!-- q10&#45;&gt;q3 -->
<g id="edge21" class="edge">
<title>q10&#45;&gt;q3</title>
<path fill="none" stroke="black" d="M555.05,-289.76C568.66,-298.6 587.72,-309.28 606.34,-313.97 675.58,-331.43 759.5,-312.16 804.44,-298.72"/>
<polygon fill="black" stroke="black" points="805.29,-302.12 813.8,-295.82 803.21,-295.43 805.29,-302.12"/>
<text text-anchor="middle" x="693.57" y="-323.39" font-family="Times,serif" font-size="14.00">a</text>
</g>
<!-- q11 -->
<g id="node12" class="node">
<title>q11</title>
<ellipse fill="none" stroke="black" cx="639.27" cy="-275.97" rx="28.83" ry="28.83"/>
<text text-anchor="middle" x="639.27" y="-270.92" font-family="Times,serif" font-size="14.00">abbb</text>
</g>
<!-- q10&#45;&gt;q11 -->
<g id="edge22" class="edge">
<title>q10&#45;&gt;q11</title>
<path fill="none" stroke="black" d="M559.28,-275.97C570.98,-275.97 585.44,-275.97 598.78,-275.97"/>
<polygon fill="black" stroke="black" points="598.61,-279.47 608.61,-275.97 598.61,-272.47 598.61,-279.47"/>
<text text-anchor="middle" x="584.97" y="-279.17" font-family="Times,serif" font-size="14.00">b</text>
</g>
<!-- q11&#45;&gt;q3 -->
<g id="edge23" class="edge">
<title>q11&#45;&gt;q3</title>
<path fill="none" stroke="black" d="M668.39,-277.69C703.78,-279.85 764.51,-283.57 802.49,-285.89"/>
<polygon fill="black" stroke="black" points="802.25,-289.38 812.45,-286.5 802.68,-282.39 802.25,-289.38"/>
<text text-anchor="middle" x="743.26" y="-287.14" font-family="Times,serif" font-size="14.00">a</text>
</g>
<!-- q11&#45;&gt;q9 -->
<g id="edge24" class="edge">
<title>q11&#45;&gt;q9</title>
<path fill="none" stroke="black" d="M665.74,-263.98C679.51,-257.5 696.63,-249.45 711.17,-242.6"/>
<polygon fill="black" stroke="black" points="712.3,-245.94 719.86,-238.51 709.32,-239.6 712.3,-245.94"/>
<text text-anchor="middle" x="693.57" y="-255.17" font-family="Times,serif" font-size="14.00">b</text>
</g>
<!-- q13 -->
<g id="node14" class="node">
<title>q13</title>
<ellipse fill="none" stroke="black" cx="352.36" cy="-133.97" rx="19.62" ry="19.62"/>
<text text-anchor="middle" x="352.36" y="-128.92" font-family="Times,serif" font-size="14.00">ba</text>
</g>
<!-- q12&#45;&gt;q13 -->
<g id="edge25" class="edge">
<title>q12&#45;&gt;q13</title>
<path fill="none" stroke="black" d="M115.18,-141.42C157.75,-140.08 267.42,-136.62 320.99,-134.93"/>
<polygon fill="black" stroke="black" points="321.04,-138.43 330.92,-134.62 320.82,-131.43 321.04,-138.43"/>
<text text-anchor="middle" x="219.14" y="-141.45" font-family="Times,serif" font-size="14.00">a</text>
</g>
<!-- q18 -->
<g id="node19" class="node">
<title>q18</title>
<ellipse fill="none" stroke="black" cx="177.63" cy="-85.97" rx="20.13" ry="20.13"/>
<text text-anchor="middle" x="177.63" y="-80.92" font-family="Times,serif" font-size="14.00">bb</text>
</g>
<!-- q12&#45;&gt;q18 -->
<g id="edge26" class="edge">
<title>q12&#45;&gt;q18</title>
<path fill="none" stroke="black" d="M110.56,-129.77C116.98,-123.92 125.02,-117.01 132.75,-111.47 138.03,-107.69 143.91,-103.97 149.61,-100.59"/>
<polygon fill="black" stroke="black" points="151.24,-103.69 158.18,-95.69 147.76,-97.61 151.24,-103.69"/>
<text text-anchor="middle" x="136.12" y="-114.67" font-family="Times,serif" font-size="14.00">b</text>
</g>
<!-- q14 -->
<g id="node15" class="node">
<title>q14</title>
<ellipse fill="none" stroke="black" cx="639.27" cy="-125.97" rx="23.71" ry="23.71"/>
<text text-anchor="middle" x="639.27" y="-120.92" font-family="Times,serif" font-size="14.00">baa</text>
</g>
<!-- q13&#45;&gt;q14 -->
<g id="edge27" class="edge">
<title>q13&#45;&gt;q14</title>
<path fill="none" stroke="black" d="M372.05,-133.45C419.17,-132.12 543.36,-128.64 603.99,-126.93"/>
<polygon fill="black" stroke="black" points="603.81,-130.44 613.71,-126.66 603.62,-123.44 603.81,-130.44"/>
<text text-anchor="middle" x="484.55" y="-133.54" font-family="Times,serif" font-size="14.00">a</text>
</g>
<!-- q16 -->
<g id="node17" class="node">
<title>q16</title>
<ellipse fill="none" stroke="black" cx="438.95" cy="-24.97" rx="24.23" ry="24.23"/>
<text text-anchor="middle" x="438.95" y="-19.92" font-family="Times,serif" font-size="14.00">bab</text>
</g>
<!-- q13&#45;&gt;q16 -->
<g id="edge28" class="edge">
<title>q13&#45;&gt;q16</title>
<path fill="none" stroke="black" d="M368.48,-122.33C377.34,-115.06 388.39,-105.16 396.73,-94.97 406.28,-83.28 415.05,-69.13 422.02,-56.62"/>
<polygon fill="black" stroke="black" points="425.05,-58.38 426.72,-47.92 418.89,-55.06 425.05,-58.38"/>
<text text-anchor="middle" x="393.35" y="-105.32" font-family="Times,serif" font-size="14.00">b</text>
</g>
<!-- q14&#45;&gt;q3 -->
<g id="edge29" class="edge">
<title>q14&#45;&gt;q3</title>
<path fill="none" stroke="black" d="M662.55,-130.96C690.24,-138 737.97,-152.91 771.58,-178.47 797.22,-197.96 814.71,-230.73 825.03,-255.35"/>
<polygon fill="black" stroke="black" points="821.76,-256.61 828.71,-264.61 828.26,-254.03 821.76,-256.61"/>
<text text-anchor="middle" x="743.26" y="-181.67" font-family="Times,serif" font-size="14.00">a</text>
</g>
<!-- q15 -->
<g id="node16" class="node">
<title>q15</title>
<ellipse fill="none" stroke="black" cx="743.26" cy="-105.97" rx="28.32" ry="28.32"/>
<text text-anchor="middle" x="743.26" y="-100.92" font-family="Times,serif" font-size="14.00">baab</text>
</g>
<!-- q14&#45;&gt;q15 -->
<g id="edge30" class="edge">
<title>q14&#45;&gt;q15</title>
<path fill="none" stroke="black" d="M662.9,-121.53C674.92,-119.18 690.01,-116.22 703.8,-113.51"/>
<polygon fill="black" stroke="black" points="704.35,-116.97 713.49,-111.61 703,-110.1 704.35,-116.97"/>
<text text-anchor="middle" x="693.57" y="-119.17" font-family="Times,serif" font-size="14.00">b</text>
</g>
<!-- q15&#45;&gt;q3 -->
<g id="edge31" class="edge">
<title>q15&#45;&gt;q3</title>
<path fill="none" stroke="black" d="M770.01,-95.46C779.19,-93.47 789.04,-93.57 796.33,-99.47 819.76,-118.43 830.13,-204.05 834.21,-253.12"/>
<polygon fill="black" stroke="black" points="830.71,-253.25 834.98,-262.95 837.69,-252.71 830.71,-253.25"/>
<text text-anchor="middle" x="792.96" y="-102.67" font-family="Times,serif" font-size="14.00">a</text>
</g>
<!-- q15&#45;&gt;q3 -->
<g id="edge32" class="edge">
<title>q15&#45;&gt;q3</title>
<path fill="none" stroke="black" d="M769.48,-117.22C779.14,-122.68 789.48,-130.1 796.33,-139.47 820.99,-173.16 830.52,-221.07 834.21,-253.28"/>
<polygon fill="black" stroke="black" points="830.69,-253.27 835.17,-262.87 837.66,-252.57 830.69,-253.27"/>
<text text-anchor="middle" x="792.96" y="-142.67" font-family="Times,serif" font-size="14.00">b</text>
</g>
<!-- q16&#45;&gt;q15 -->
<g id="edge33" class="edge">
<title>q16&#45;&gt;q15</title>
<path fill="none" stroke="black" d="M462.39,-18.02C509.89,-4.75 622.34,18.93 696.94,-27.97 711.81,-37.32 722.35,-53.44 729.5,-68.61"/>
<polygon fill="black" stroke="black" points="726.14,-69.68 733.32,-77.47 732.57,-66.91 726.14,-69.68"/>
<text text-anchor="middle" x="584.97" y="-3.38" font-family="Times,serif" font-size="14.00">a</text>
</g>
<!-- q17 -->
<g id="node18" class="node">
<title>q17</title>
<ellipse fill="none" stroke="black" cx="534.76" cy="-72.97" rx="28.83" ry="28.83"/>
<text text-anchor="middle" x="534.76" y="-67.92" font-family="Times,serif" font-size="14.00">babb</text>
</g>
<!-- q16&#45;&gt;q17 -->
<g id="edge34" class="edge">
<title>q16&#45;&gt;q17</title>
<path fill="none" stroke="black" d="M461.67,-34.14C469.97,-37.79 479.48,-42.15 487.93,-46.47 491.86,-48.49 495.94,-50.68 499.97,-52.91"/>
<polygon fill="black" stroke="black" points="498.01,-55.83 508.44,-57.72 501.47,-49.74 498.01,-55.83"/>
<text text-anchor="middle" x="484.55" y="-49.67" font-family="Times,serif" font-size="14.00">b</text>
</g>
<!-- q17&#45;&gt;q3 -->
<g id="edge35" class="edge">
<title>q17&#45;&gt;q3</title>
<path fill="none" stroke="black" d="M563.11,-65.99C608.33,-55.85 700.7,-41.12 771.58,-68.97 785.56,-74.46 788.97,-78.88 796.33,-91.97 825.07,-143.09 833.39,-212.03 835.72,-253.06"/>
<polygon fill="black" stroke="black" points="832.22,-253.01 836.18,-262.83 839.21,-252.68 832.22,-253.01"/>
<text text-anchor="middle" x="693.57" y="-56.69" font-family="Times,serif" font-size="14.00">a</text>
</g>
<!-- q17&#45;&gt;q14 -->
<g id="edge36" class="edge">
<title>q17&#45;&gt;q14</title>
<path fill="none" stroke="black" d="M560.83,-85.94C574.99,-93.26 592.8,-102.46 607.76,-110.2"/>
<polygon fill="black" stroke="black" points="605.75,-113.1 616.24,-114.58 608.97,-106.88 605.75,-113.1"/>
<text text-anchor="middle" x="584.97" y="-102.67" font-family="Times,serif" font-size="14.00">b</text>
</g>
<!-- q18&#45;&gt;q16 -->
<g id="edge37" class="edge">
<title>q18&#45;&gt;q16</title>
<path fill="none" stroke="black" d="M194.94,-74.84C207,-67.16 224.1,-57.39 240.51,-51.97 295.56,-33.78 363.13,-27.84 403.25,-25.9"/>
<polygon fill="black" stroke="black" points="403.18,-29.41 413.02,-25.49 402.88,-22.41 403.18,-29.41"/>
<text text-anchor="middle" x="311.36" y="-38.71" font-family="Times,serif" font-size="14.00">a</text>
</g>
<!-- q19 -->
<g id="node20" class="node">
<title>q19</title>
<ellipse fill="none" stroke="black" cx="265.25" cy="-85.97" rx="24.74" ry="24.74"/>
<text text-anchor="middle" x="265.25" y="-80.92" font-family="Times,serif" font-size="14.00">bbb</text>
</g>
<!-- q18&#45;&gt;q19 -->
<g id="edge38" class="edge">
<title>q18&#45;&gt;q19</title>
<path fill="none" stroke="black" d="M198.06,-85.97C207.16,-85.97 218.31,-85.97 228.83,-85.97"/>
<polygon fill="black" stroke="black" points="228.8,-89.47 238.8,-85.97 228.8,-82.47 228.8,-89.47"/>
<text text-anchor="middle" x="219.14" y="-89.17" font-family="Times,serif" font-size="14.00">b</text>
</g>
<!-- q19&#45;&gt;q13 -->
<g id="edge40" class="edge">
<title>q19&#45;&gt;q13</title>
<path fill="none" stroke="black" d="M287.66,-96.84C296.16,-101.25 305.98,-106.48 314.74,-111.47 318.21,-113.45 321.84,-115.59 325.4,-117.73"/>
<polygon fill="black" stroke="black" points="323.44,-120.63 333.8,-122.86 327.09,-114.66 323.44,-120.63"/>
<text text-anchor="middle" x="311.36" y="-114.67" font-family="Times,serif" font-size="14.00">b</text>
</g>
<!-- q19&#45;&gt;q17 -->
<g id="edge39" class="edge">
<title>q19&#45;&gt;q17</title>
<path fill="none" stroke="black" d="M289.93,-83.19C314.8,-80.4 355.07,-76.27 389.98,-74.47 425.25,-72.65 465.46,-72.38 494.37,-72.51"/>
<polygon fill="black" stroke="black" points="494.1,-76.01 504.12,-72.57 494.14,-69.01 494.1,-76.01"/>
<text text-anchor="middle" x="393.35" y="-77.67" font-family="Times,serif" font-size="14.00">a</text>
</g>
</g>
</svg>
