<?xml version="1.0" encoding="UTF-8" standalone="no"?>
<!DOCTYPE svg PUBLIC "-//W3C//DTD SVG 1.1//EN"
 "http://www.w3.org/Graphics/SVG/1.1/DTD/svg11.dtd">
<!-- Generated by graphviz version 12.2.1 (20241206.2353)
 -->
<!-- Title: Automaton Pages: 1 -->
<svg width="882pt" height="556pt"
 viewBox="0.00 0.00 882.24 556.03" xmlns="http://www.w3.org/2000/svg" xmlns:xlink="http://www.w3.org/1999/xlink">
<g id="graph0" class="graph" transform="scale(1 1) rotate(0) translate(4 552.03)">
<title>Automaton</title>
<polygon fill="white" stroke="none" points="-4,4 -4,-552.03 878.24,-552.03 878.24,4 -4,4"/>
<!-- q0 -->
<g id="node1" class="node">
<title>q0</title>
<ellipse fill="none" stroke="black" cx="18" cy="-193.97" rx="18" ry="18"/>
<text text-anchor="middle" x="18" y="-188.92" font-family="Times,serif" font-size="14.00">ε</text>
</g>
<!-- q1 -->
<g id="node2" class="node">
<title>q1</title>
<ellipse fill="none" stroke="black" cx="265.25" cy="-246.97" rx="18" ry="18"/>
<text text-anchor="middle" x="265.25" y="-241.92" font-family="Times,serif" font-size="14.00">a</text>
</g>
<!-- q0&#45;&gt;q1 -->
<g id="edge1" class="edge">
<title>q0&#45;&gt;q1</title>
<path fill="none" stroke="black" d="M35.86,-197.61C77.34,-206.58 184.7,-229.78 236.06,-240.88"/>
<polygon fill="black" stroke="black" points="235.28,-244.29 245.8,-242.98 236.76,-237.45 235.28,-244.29"/>
<text text-anchor="middle" x="136.12" y="-223.06" font-family="Times,serif" font-size="14.00">a</text>
</g>
<!-- q12 -->
<g id="node13" class="node">
<title>q12</title>
<ellipse fill="none" stroke="black" cx="96.75" cy="-141.97" rx="18" ry="18"/>
<text text-anchor="middle" x="96.75" y="-136.92" font-family="Times,serif" font-size="14.00">b</text>
</g>
<!-- q0&#45;&gt;q12 -->
<g id="edge2" class="edge">
<title>q0&#45;&gt;q12</title>
<path fill="none" stroke="black" d="M33.44,-184.19C44.26,-176.85 59.32,-166.65 71.93,-158.11"/>
<polygon fill="black" stroke="black" points="73.81,-161.06 80.13,-152.56 69.88,-155.27 73.81,-161.06"/>
<text text-anchor="middle" x="57.38" y="-172.73" font-family="Times,serif" font-size="14.00">b</text>
</g>
<!-- q2 -->
<g id="node3" class="node">
<title>q2</title>
<ellipse fill="none" stroke="black" cx="352.36" cy="-370.97" rx="19.11" ry="19.11"/>
<text text-anchor="middle" x="352.36" y="-365.92" font-family="Times,serif" font-size="14.00">aa</text>
</g>
<!-- q1&#45;&gt;q2 -->
<g id="edge3" class="edge">
<title>q1&#45;&gt;q2</title>
<path fill="none" stroke="black" d="M276.35,-261.68C290.65,-282.52 317,-320.92 334.35,-346.2"/>
<polygon fill="black" stroke="black" points="331.34,-347.99 339.88,-354.25 337.11,-344.03 331.34,-347.99"/>
<text text-anchor="middle" x="311.36" y="-319.6" font-family="Times,serif" font-size="14.00">a</text>
</g>
<!-- q8 -->
<g id="node9" class="node">
<title>q8</title>
<ellipse fill="none" stroke="black" cx="438.95" cy="-246.97" rx="19.62" ry="19.62"/>
<text text-anchor="middle" x="438.95" y="-241.92" font-family="Times,serif" font-size="14.00">ab</text>
</g>
<!-- q1&#45;&gt;q8 -->
<g id="edge4" class="edge">
<title>q1&#45;&gt;q8</title>
<path fill="none" stroke="black" d="M283.66,-246.97C312.77,-246.97 371.66,-246.97 407.67,-246.97"/>
<polygon fill="black" stroke="black" points="407.42,-250.47 417.42,-246.97 407.42,-243.47 407.42,-250.47"/>
<text text-anchor="middle" x="352.36" y="-250.17" font-family="Times,serif" font-size="14.00">b</text>
</g>
<!-- q3 -->
<g id="node4" class="node">
<title>q3</title>
<ellipse fill="none" stroke="black" cx="851.04" cy="-309.97" rx="23.2" ry="23.2"/>
<text text-anchor="middle" x="851.04" y="-304.92" font-family="Times,serif" font-size="14.00">aaa</text>
</g>
<!-- q2&#45;&gt;q3 -->
<g id="edge5" class="edge">
<title>q2&#45;&gt;q3</title>
<path fill="none" stroke="black" d="M371.84,-370.97C388.98,-370.97 415.19,-370.97 437.95,-370.97 437.95,-370.97 437.95,-370.97 744.26,-370.97 775.33,-370.97 805.49,-350.98 825.6,-333.89"/>
<polygon fill="black" stroke="black" points="827.83,-336.59 832.97,-327.32 823.18,-331.36 827.83,-336.59"/>
<text text-anchor="middle" x="584.97" y="-374.17" font-family="Times,serif" font-size="14.00">a</text>
</g>
<!-- q4 -->
<g id="node5" class="node">
<title>q4</title>
<ellipse fill="none" stroke="black" cx="438.95" cy="-422.97" rx="23.71" ry="23.71"/>
<text text-anchor="middle" x="438.95" y="-417.92" font-family="Times,serif" font-size="14.00">aab</text>
</g>
<!-- q2&#45;&gt;q4 -->
<g id="edge6" class="edge">
<title>q2&#45;&gt;q4</title>
<path fill="none" stroke="black" d="M369.27,-380.75C380.33,-387.55 395.4,-396.81 408.6,-404.93"/>
<polygon fill="black" stroke="black" points="406.6,-407.81 416.95,-410.06 410.26,-401.84 406.6,-407.81"/>
<text text-anchor="middle" x="393.35" y="-400.17" font-family="Times,serif" font-size="14.00">b</text>
</g>
<!-- q3&#45;&gt;q3 -->
<g id="edge7" class="edge">
<title>q3&#45;&gt;q3</title>
<path fill="none" stroke="black" d="M841.65,-331.59C840.49,-341.99 843.62,-351.17 851.04,-351.17 855.56,-351.17 858.48,-347.76 859.82,-342.75"/>
<polygon fill="black" stroke="black" points="863.3,-343.28 860.34,-333.1 856.31,-342.9 863.3,-343.28"/>
<text text-anchor="middle" x="851.04" y="-354.37" font-family="Times,serif" font-size="14.00">a, b</text>
</g>
<!-- q5 -->
<g id="node6" class="node">
<title>q5</title>
<ellipse fill="none" stroke="black" cx="743.26" cy="-426.97" rx="27.81" ry="27.81"/>
<text text-anchor="middle" x="743.26" y="-421.92" font-family="Times,serif" font-size="14.00">aaba</text>
</g>
<!-- q4&#45;&gt;q5 -->
<g id="edge8" class="edge">
<title>q4&#45;&gt;q5</title>
<path fill="none" stroke="black" d="M462.67,-423.27C514.12,-423.95 640,-425.62 703.82,-426.46"/>
<polygon fill="black" stroke="black" points="703.42,-429.96 713.47,-426.59 703.52,-422.96 703.42,-429.96"/>
<text text-anchor="middle" x="584.97" y="-428.12" font-family="Times,serif" font-size="14.00">a</text>
</g>
<!-- q6 -->
<g id="node7" class="node">
<title>q6</title>
<ellipse fill="none" stroke="black" cx="534.76" cy="-477.97" rx="28.32" ry="28.32"/>
<text text-anchor="middle" x="534.76" y="-472.92" font-family="Times,serif" font-size="14.00">aabb</text>
</g>
<!-- q4&#45;&gt;q6 -->
<g id="edge9" class="edge">
<title>q4&#45;&gt;q6</title>
<path fill="none" stroke="black" d="M459.85,-434.64C471.5,-441.47 486.54,-450.28 500,-458.18"/>
<polygon fill="black" stroke="black" points="498.2,-461.18 508.6,-463.22 501.74,-455.14 498.2,-461.18"/>
<text text-anchor="middle" x="484.55" y="-453.67" font-family="Times,serif" font-size="14.00">b</text>
</g>
<!-- q5&#45;&gt;q3 -->
<g id="edge10" class="edge">
<title>q5&#45;&gt;q3</title>
<path fill="none" stroke="black" d="M768.87,-415.15C782.2,-407.84 798.27,-397.47 809.83,-384.97 821.35,-372.53 830.62,-356.17 837.34,-341.91"/>
<polygon fill="black" stroke="black" points="840.48,-343.45 841.36,-332.89 834.09,-340.6 840.48,-343.45"/>
<text text-anchor="middle" x="799.71" y="-404.83" font-family="Times,serif" font-size="14.00">a, b</text>
</g>
<!-- q6&#45;&gt;q3 -->
<g id="edge11" class="edge">
<title>q6&#45;&gt;q3</title>
<path fill="none" stroke="black" d="M557.54,-495.12C570.82,-504.47 588.6,-515.09 606.34,-519.97 677.67,-539.59 707.85,-537.52 771.58,-499.97 825.63,-468.12 842.45,-390.42 847.68,-344.86"/>
<polygon fill="black" stroke="black" points="851.15,-345.28 848.67,-334.98 844.19,-344.58 851.15,-345.28"/>
<text text-anchor="middle" x="693.57" y="-534.73" font-family="Times,serif" font-size="14.00">a</text>
</g>
<!-- q7 -->
<g id="node8" class="node">
<title>q7</title>
<ellipse fill="none" stroke="black" cx="639.27" cy="-477.97" rx="32.93" ry="32.93"/>
<text text-anchor="middle" x="639.27" y="-472.92" font-family="Times,serif" font-size="14.00">aabbb</text>
</g>
<!-- q6&#45;&gt;q7 -->
<g id="edge12" class="edge">
<title>q6&#45;&gt;q7</title>
<path fill="none" stroke="black" d="M563.5,-477.97C573.17,-477.97 584.26,-477.97 594.89,-477.97"/>
<polygon fill="black" stroke="black" points="594.63,-481.47 604.63,-477.97 594.63,-474.47 594.63,-481.47"/>
<text text-anchor="middle" x="584.97" y="-481.17" font-family="Times,serif" font-size="14.00">b</text>
</g>
<!-- q7&#45;&gt;q3 -->
<g id="edge13" class="edge">
<title>q7&#45;&gt;q3</title>
<path fill="none" stroke="black" d="M672.34,-480.82C700.12,-481.88 740.61,-479.94 771.58,-463.97 816.3,-440.92 836.09,-382.01 844.43,-344.1"/>
<polygon fill="black" stroke="black" points="847.81,-345.05 846.36,-334.55 840.95,-343.66 847.81,-345.05"/>
<text text-anchor="middle" x="743.26" y="-482.54" font-family="Times,serif" font-size="14.00">a</text>
</g>
<!-- q7&#45;&gt;q5 -->
<g id="edge14" class="edge">
<title>q7&#45;&gt;q5</title>
<path fill="none" stroke="black" d="M669.22,-463.49C681.28,-457.47 695.37,-450.42 707.94,-444.13"/>
<polygon fill="black" stroke="black" points="709.33,-447.35 716.71,-439.75 706.2,-441.09 709.33,-447.35"/>
<text text-anchor="middle" x="693.57" y="-455.67" font-family="Times,serif" font-size="14.00">b</text>
</g>
<!-- q9 -->
<g id="node10" class="node">
<title>q9</title>
<ellipse fill="none" stroke="black" cx="743.26" cy="-227.97" rx="23.71" ry="23.71"/>
<text text-anchor="middle" x="743.26" y="-222.92" font-family="Times,serif" font-size="14.00">aba</text>
</g>
<!-- q8&#45;&gt;q9 -->
<g id="edge15" class="edge">
<title>q8&#45;&gt;q9</title>
<path fill="none" stroke="black" d="M458.86,-245.78C508.65,-242.65 643.92,-234.15 707.88,-230.13"/>
<polygon fill="black" stroke="black" points="708.04,-233.63 717.8,-229.51 707.6,-226.64 708.04,-233.63"/>
<text text-anchor="middle" x="584.97" y="-241.11" font-family="Times,serif" font-size="14.00">a</text>
</g>
<!-- q10 -->
<g id="node11" class="node">
<title>q10</title>
<ellipse fill="none" stroke="black" cx="534.76" cy="-275.97" rx="24.23" ry="24.23"/>
<text text-anchor="middle" x="534.76" y="-270.92" font-family="Times,serif" font-size="14.00">abb</text>
</g>
<!-- q8&#45;&gt;q10 -->
<g id="edge16" class="edge">
<title>q8&#45;&gt;q10</title>
<path fill="none" stroke="black" d="M458.04,-252.56C469.97,-256.25 485.96,-261.19 500.17,-265.59"/>
<polygon fill="black" stroke="black" points="499.05,-268.9 509.63,-268.51 501.11,-262.22 499.05,-268.9"/>
<text text-anchor="middle" x="484.55" y="-264.67" font-family="Times,serif" font-size="14.00">b</text>
</g>
<!-- q9&#45;&gt;q3 -->
<g id="edge17" class="edge">
<title>q9&#45;&gt;q3</title>
<path fill="none" stroke="black" d="M766.42,-234.83C779.89,-239.72 796.92,-247.24 809.83,-257.47 818.07,-264 825.56,-272.57 831.78,-280.89"/>
<polygon fill="black" stroke="black" points="828.74,-282.66 837.36,-288.82 834.46,-278.63 828.74,-282.66"/>
<text text-anchor="middle" x="799.71" y="-260.67" font-family="Times,serif" font-size="14.00">a, b</text>
</g>
<!-- q10&#45;&gt;q3 -->
<g id="edge18" class="edge">
<title>q10&#45;&gt;q3</title>
<path fill="none" stroke="black" d="M555.09,-289.59C568.72,-298.36 587.78,-309.02 606.34,-313.97 679.46,-333.48 769.35,-323.78 816.89,-316.16"/>
<polygon fill="black" stroke="black" points="817.26,-319.65 826.54,-314.54 816.1,-312.74 817.26,-319.65"/>
<text text-anchor="middle" x="693.57" y="-328.5" font-family="Times,serif" font-size="14.00">a</text>
</g>
<!-- q11 -->
<g id="node12" class="node">
<title>q11</title>
<ellipse fill="none" stroke="black" cx="639.27" cy="-275.97" rx="28.83" ry="28.83"/>
<text text-anchor="middle" x="639.27" y="-270.92" font-family="Times,serif" font-size="14.00">abbb</text>
</g>
<!-- q10&#45;&gt;q11 -->
<g id="edge19" class="edge">
<title>q10&#45;&gt;q11</title>
<path fill="none" stroke="black" d="M559.28,-275.97C570.98,-275.97 585.44,-275.97 598.78,-275.97"/>
<polygon fill="black" stroke="black" points="598.61,-279.47 608.61,-275.97 598.61,-272.47 598.61,-279.47"/>
<text text-anchor="middle" x="584.97" y="-279.17" font-family="Times,serif" font-size="14.00">b</text>
</g>
<!-- q11&#45;&gt;q3 -->
<g id="edge20" class="edge">
<title>q11&#45;&gt;q3</title>
<path fill="none" stroke="black" d="M668.12,-280.49C706.46,-286.7 775.42,-297.88 816.53,-304.54"/>
<polygon fill="black" stroke="black" points="815.91,-307.99 826.34,-306.13 817.03,-301.08 815.91,-307.99"/>
<text text-anchor="middle" x="743.26" y="-300.11" font-family="Times,serif" font-size="14.00">a</text>
</g>
<!-- q11&#45;&gt;q9 -->
<g id="edge21" class="edge">
<title>q11&#45;&gt;q9</title>
<path fill="none" stroke="black" d="M665.74,-263.98C679.51,-257.5 696.63,-249.45 711.17,-242.6"/>
<polygon fill="black" stroke="black" points="712.3,-245.94 719.86,-238.51 709.32,-239.6 712.3,-245.94"/>
<text text-anchor="middle" x="693.57" y="-255.17" font-family="Times,serif" font-size="14.00">b</text>
</g>
<!-- q13 -->
<g id="node14" class="node">
<title>q13</title>
<ellipse fill="none" stroke="black" cx="352.36" cy="-133.97" rx="19.62" ry="19.62"/>
<text text-anchor="middle" x="352.36" y="-128.92" font-family="Times,serif" font-size="14.00">ba</text>
</g>
<!-- q12&#45;&gt;q13 -->
<g id="edge22" class="edge">
<title>q12&#45;&gt;q13</title>
<path fill="none" stroke="black" d="M115.18,-141.42C157.75,-140.08 267.42,-136.62 320.99,-134.93"/>
<polygon fill="black" stroke="black" points="321.04,-138.43 330.92,-134.62 320.82,-131.43 321.04,-138.43"/>
<text text-anchor="middle" x="219.14" y="-141.45" font-family="Times,serif" font-size="14.00">a</text>
</g>
<!-- q18 -->
<g id="node19" class="node">
<title>q18</title>
<ellipse fill="none" stroke="black" cx="177.63" cy="-85.97" rx="20.13" ry="20.13"/>
<text text-anchor="middle" x="177.63" y="-80.92" font-family="Times,serif" font-size="14.00">bb</text>
</g>
<!-- q12&#45;&gt;q18 -->
<g id="edge23" class="edge">
<title>q12&#45;&gt;q18</title>
<path fill="none" stroke="black" d="M110.56,-129.77C116.98,-123.92 125.02,-117.01 132.75,-111.47 138.03,-107.69 143.91,-103.97 149.61,-100.59"/>
<polygon fill="black" stroke="black" points="151.24,-103.69 158.18,-95.69 147.76,-97.61 151.24,-103.69"/>
<text text-anchor="middle" x="136.12" y="-114.67" font-family="Times,serif" font-size="14.00">b</text>
</g>
<!-- q14 -->
<g id="node15" class="node">
<title>q14</title>
<ellipse fill="none" stroke="black" cx="639.27" cy="-135.97" rx="23.71" ry="23.71"/>
<text text-anchor="middle" x="639.27" y="-130.92" font-family="Times,serif" font-size="14.00">baa</text>
</g>
<!-- q13&#45;&gt;q14 -->
<g id="edge24" class="edge">
<title>q13&#45;&gt;q14</title>
<path fill="none" stroke="black" d="M372.05,-134.1C419.17,-134.43 543.36,-135.3 603.99,-135.73"/>
<polygon fill="black" stroke="black" points="603.68,-139.23 613.71,-135.8 603.73,-132.23 603.68,-139.23"/>
<text text-anchor="middle" x="484.55" y="-138.1" font-family="Times,serif" font-size="14.00">a</text>
</g>
<!-- q16 -->
<g id="node17" class="node">
<title>q16</title>
<ellipse fill="none" stroke="black" cx="438.95" cy="-24.97" rx="24.23" ry="24.23"/>
<text text-anchor="middle" x="438.95" y="-19.92" font-family="Times,serif" font-size="14.00">bab</text>
</g>
<!-- q13&#45;&gt;q16 -->
<g id="edge25" class="edge">
<title>q13&#45;&gt;q16</title>
<path fill="none" stroke="black" d="M368.48,-122.33C377.34,-115.06 388.39,-105.16 396.73,-94.97 406.28,-83.28 415.05,-69.13 422.02,-56.62"/>
<polygon fill="black" stroke="black" points="425.05,-58.38 426.72,-47.92 418.89,-55.06 425.05,-58.38"/>
<text text-anchor="middle" x="393.35" y="-105.32" font-family="Times,serif" font-size="14.00">b</text>
</g>
<!-- q14&#45;&gt;q3 -->
<g id="edge26" class="edge">
<title>q14&#45;&gt;q3</title>
<path fill="none" stroke="black" d="M662.95,-138.46C691.06,-142.55 739.21,-152.96 771.58,-178.47 804.32,-204.26 826.38,-247.77 838.56,-277.63"/>
<polygon fill="black" stroke="black" points="835.15,-278.51 842.05,-286.55 841.67,-275.96 835.15,-278.51"/>
<text text-anchor="middle" x="743.26" y="-181.67" font-family="Times,serif" font-size="14.00">a</text>
</g>
<!-- q15 -->
<g id="node16" class="node">
<title>q15</title>
<ellipse fill="none" stroke="black" cx="743.26" cy="-105.97" rx="28.32" ry="28.32"/>
<text text-anchor="middle" x="743.26" y="-100.92" font-family="Times,serif" font-size="14.00">baab</text>
</g>
<!-- q14&#45;&gt;q15 -->
<g id="edge27" class="edge">
<title>q14&#45;&gt;q15</title>
<path fill="none" stroke="black" d="M662.4,-129.46C674.79,-125.82 690.57,-121.18 704.82,-116.98"/>
<polygon fill="black" stroke="black" points="705.78,-120.35 714.38,-114.17 703.8,-113.64 705.78,-120.35"/>
<text text-anchor="middle" x="693.57" y="-124.17" font-family="Times,serif" font-size="14.00">b</text>
</g>
<!-- q15&#45;&gt;q3 -->
<g id="edge28" class="edge">
<title>q15&#45;&gt;q3</title>
<path fill="none" stroke="black" d="M770.78,-113.56C784.36,-118.75 800.05,-127 809.83,-139.47 840.65,-178.77 848.47,-237.82 850.12,-275.1"/>
<polygon fill="black" stroke="black" points="846.62,-274.98 850.42,-284.87 853.61,-274.77 846.62,-274.98"/>
<text text-anchor="middle" x="799.71" y="-142.67" font-family="Times,serif" font-size="14.00">a, b</text>
</g>
<!-- q16&#45;&gt;q15 -->
<g id="edge29" class="edge">
<title>q16&#45;&gt;q15</title>
<path fill="none" stroke="black" d="M462.39,-18.02C509.89,-4.75 622.34,18.93 696.94,-27.97 711.81,-37.32 722.35,-53.44 729.5,-68.61"/>
<polygon fill="black" stroke="black" points="726.14,-69.68 733.32,-77.47 732.57,-66.91 726.14,-69.68"/>
<text text-anchor="middle" x="584.97" y="-3.38" font-family="Times,serif" font-size="14.00">a</text>
</g>
<!-- q17 -->
<g id="node18" class="node">
<title>q17</title>
<ellipse fill="none" stroke="black" cx="534.76" cy="-72.97" rx="28.83" ry="28.83"/>
<text text-anchor="middle" x="534.76" y="-67.92" font-family="Times,serif" font-size="14.00">babb</text>
</g>
<!-- q16&#45;&gt;q17 -->
<g id="edge30" class="edge">
<title>q16&#45;&gt;q17</title>
<path fill="none" stroke="black" d="M461.67,-34.14C469.97,-37.79 479.48,-42.15 487.93,-46.47 491.86,-48.49 495.94,-50.68 499.97,-52.91"/>
<polygon fill="black" stroke="black" points="498.01,-55.83 508.44,-57.72 501.47,-49.74 498.01,-55.83"/>
<text text-anchor="middle" x="484.55" y="-49.67" font-family="Times,serif" font-size="14.00">b</text>
</g>
<!-- q17&#45;&gt;q3 -->
<g id="edge31" class="edge">
<title>q17&#45;&gt;q3</title>
<path fill="none" stroke="black" d="M562.59,-64.96C608.24,-52.92 702.75,-34.96 771.58,-68.97 796.67,-81.36 798.16,-93.54 809.83,-118.97 833.4,-170.33 843.32,-235.82 847.38,-275.24"/>
<polygon fill="black" stroke="black" points="843.88,-275.46 848.31,-285.09 850.85,-274.8 843.88,-275.46"/>
<text text-anchor="middle" x="693.57" y="-53.29" font-family="Times,serif" font-size="14.00">a</text>
</g>
<!-- q17&#45;&gt;q14 -->
<g id="edge32" class="edge">
<title>q17&#45;&gt;q14</title>
<path fill="none" stroke="black" d="M559.79,-87.74C574.45,-96.75 593.3,-108.33 608.85,-117.89"/>
<polygon fill="black" stroke="black" points="606.87,-120.78 617.22,-123.04 610.53,-114.82 606.87,-120.78"/>
<text text-anchor="middle" x="584.97" y="-107.67" font-family="Times,serif" font-size="14.00">b</text>
</g>
<!-- q18&#45;&gt;q16 -->
<g id="edge33" class="edge">
<title>q18&#45;&gt;q16</title>
<path fill="none" stroke="black" d="M194.94,-74.84C207,-67.16 224.1,-57.39 240.51,-51.97 295.56,-33.78 363.13,-27.84 403.25,-25.9"/>
<polygon fill="black" stroke="black" points="403.18,-29.41 413.02,-25.49 402.88,-22.41 403.18,-29.41"/>
<text text-anchor="middle" x="311.36" y="-38.71" font-family="Times,serif" font-size="14.00">a</text>
</g>
<!-- q19 -->
<g id="node20" class="node">
<title>q19</title>
<ellipse fill="none" stroke="black" cx="265.25" cy="-85.97" rx="24.74" ry="24.74"/>
<text text-anchor="middle" x="265.25" y="-80.92" font-family="Times,serif" font-size="14.00">bbb</text>
</g>
<!-- q18&#45;&gt;q19 -->
<g id="edge34" class="edge">
<title>q18&#45;&gt;q19</title>
<path fill="none" stroke="black" d="M198.06,-85.97C207.16,-85.97 218.31,-85.97 228.83,-85.97"/>
<polygon fill="black" stroke="black" points="228.8,-89.47 238.8,-85.97 228.8,-82.47 228.8,-89.47"/>
<text text-anchor="middle" x="219.14" y="-89.17" font-family="Times,serif" font-size="14.00">b</text>
</g>
<!-- q19&#45;&gt;q13 -->
<g id="edge36" class="edge">
<title>q19&#45;&gt;q13</title>
<path fill="none" stroke="black" d="M287.66,-96.84C296.16,-101.25 305.98,-106.48 314.74,-111.47 318.21,-113.45 321.84,-115.59 325.4,-117.73"/>
<polygon fill="black" stroke="black" points="323.44,-120.63 333.8,-122.86 327.09,-114.66 323.44,-120.63"/>
<text text-anchor="middle" x="311.36" y="-114.67" font-family="Times,serif" font-size="14.00">b</text>
</g>
<!-- q19&#45;&gt;q17 -->
<g id="edge35" class="edge">
<title>q19&#45;&gt;q17</title>
<path fill="none" stroke="black" d="M289.93,-83.19C314.8,-80.4 355.07,-76.27 389.98,-74.47 425.25,-72.65 465.46,-72.38 494.37,-72.51"/>
<polygon fill="black" stroke="black" points="494.1,-76.01 504.12,-72.57 494.14,-69.01 494.1,-76.01"/>
<text text-anchor="middle" x="393.35" y="-77.67" font-family="Times,serif" font-size="14.00">a</text>
</g>
</g>
</svg>
